<?xml version="1.0" encoding="UTF-8" standalone="no"?>
<!-- Created with Inkscape (http://www.inkscape.org/) -->

<svg
   xmlns:osb="http://www.openswatchbook.org/uri/2009/osb"
   xmlns:dc="http://purl.org/dc/elements/1.1/"
   xmlns:cc="http://creativecommons.org/ns#"
   xmlns:rdf="http://www.w3.org/1999/02/22-rdf-syntax-ns#"
   xmlns:svg="http://www.w3.org/2000/svg"
   xmlns="http://www.w3.org/2000/svg"
   xmlns:xlink="http://www.w3.org/1999/xlink"
   xmlns:sodipodi="http://sodipodi.sourceforge.net/DTD/sodipodi-0.dtd"
   xmlns:inkscape="http://www.inkscape.org/namespaces/inkscape"
   width="24in"
   height="12in"
   viewBox="0 0 609.60001 304.80001"
   version="1.1"
   id="svg8"
   inkscape:version="0.92.1 r15371"
   sodipodi:docname="osd_small.svg">
  <defs
     id="defs2">
    <linearGradient
       id="linearGradient4701">
      <stop
         style="stop-color:#000000;stop-opacity:1;"
         offset="0"
         id="stop4699" />
    </linearGradient>
    <linearGradient
       id="linearGradient4695">
      <stop
         style="stop-color:#000000;stop-opacity:1;"
         offset="0"
         id="stop4693" />
    </linearGradient>
    <linearGradient
       id="linearGradient4687"
       osb:paint="solid">
      <stop
         style="stop-color:#000000;stop-opacity:1;"
         offset="0"
         id="stop4685" />
    </linearGradient>
    <linearGradient
       id="linearGradient4677"
       osb:paint="solid">
      <stop
         style="stop-color:#000000;stop-opacity:1;"
         offset="0"
         id="stop4675" />
    </linearGradient>
    <linearGradient
       id="linearGradient4778"
       osb:paint="solid">
      <stop
         style="stop-color:#000000;stop-opacity:1;"
         offset="0"
         id="stop4776" />
    </linearGradient>
    <linearGradient
       id="linearGradient4554"
       osb:paint="solid">
      <stop
         style="stop-color:#000000;stop-opacity:1;"
         offset="0"
         id="stop4552" />
    </linearGradient>
    <linearGradient
       id="linearGradient4490"
       osb:paint="solid">
      <stop
         style="stop-color:#000000;stop-opacity:1;"
         offset="0"
         id="stop4488" />
    </linearGradient>
    <linearGradient
       id="linearGradient4505"
       osb:paint="solid">
      <stop
         style="stop-color:#000000;stop-opacity:1;"
         offset="0"
         id="stop4503" />
    </linearGradient>
    <linearGradient
       inkscape:collect="always"
       xlink:href="#linearGradient4554"
       id="linearGradient4556-0"
       x1="-48.380955"
       y1="208.93153"
       x2="86.556541"
       y2="208.93153"
       gradientUnits="userSpaceOnUse"
       gradientTransform="matrix(2.3190564,0,0,0.97996532,127.26461,-27.042501)" />
  </defs>
  <sodipodi:namedview
     id="base"
     pagecolor="#ffffff"
     bordercolor="#666666"
     borderopacity="1.0"
     inkscape:pageopacity="0.0"
     inkscape:pageshadow="2"
     inkscape:zoom="0.99682413"
     inkscape:cx="585.98553"
     inkscape:cy="327.66731"
     inkscape:document-units="mm"
     inkscape:current-layer="layer1"
     showgrid="false"
     inkscape:window-width="1920"
     inkscape:window-height="1014"
     inkscape:window-x="0"
     inkscape:window-y="0"
     inkscape:window-maximized="1"
     units="in"
     inkscape:measure-start="20.5653,56.68"
     inkscape:measure-end="43.6386,18.5589" />
  <metadata
     id="metadata5">
    <rdf:RDF>
      <cc:Work
         rdf:about="">
        <dc:format>image/svg+xml</dc:format>
        <dc:type
           rdf:resource="http://purl.org/dc/dcmitype/StillImage" />
        <dc:title></dc:title>
      </cc:Work>
    </rdf:RDF>
  </metadata>
  <g
     inkscape:label="Layer 1"
     inkscape:groupmode="layer"
     id="layer1"
     transform="translate(0,7.8000168)">
    <rect
       id="rect3677"
       width="75.900009"
       height="99.900009"
       x="5.0499954"
       y="192.04999"
       style="fill:none;stroke:#000000;stroke-width:0.09999011;stroke-miterlimit:4;stroke-dasharray:none;stroke-opacity:1"
       rx="3.4999998"
       ry="3.5" />
    <circle
       id="path3681-7"
       cx="74.5"
       cy="285.49997"
       style="fill:none;stroke:#000000;stroke-width:0.09972107;stroke-miterlimit:4;stroke-dasharray:none;stroke-opacity:1"
       r="1.4501395" />
    <circle
       id="path3681"
       cx="11.5"
       cy="285.49997"
       style="fill:none;stroke:#000000;stroke-width:0.09972107;stroke-miterlimit:4;stroke-dasharray:none;stroke-opacity:1"
       r="1.4501395" />
    <circle
       id="path3681-7-6"
       cx="74.5"
       cy="198.49998"
       style="fill:none;stroke:#000000;stroke-width:0.09972107;stroke-miterlimit:4;stroke-dasharray:none;stroke-opacity:1"
       r="1.4501395" />
    <circle
       id="path3681-2"
       cx="11.5"
       cy="198.49998"
       style="fill:none;stroke:#000000;stroke-width:0.09972107;stroke-miterlimit:4;stroke-dasharray:none;stroke-opacity:1"
       r="1.4501395" />
    <rect
       style="fill:none;stroke:#ff0000;stroke-width:0.09998506;stroke-miterlimit:4;stroke-dasharray:none;stroke-opacity:1"
       id="rect4550"
       width="55.900017"
       height="84.900017"
       x="15.049993"
       y="199.54997"
       rx="3.5"
       ry="3.5" />
    <circle
       id="path3681-2-2"
       cx="18.5"
       cy="203.49998"
       style="fill:none;stroke:#000000;stroke-width:0.09972107;stroke-miterlimit:4;stroke-dasharray:none;stroke-opacity:1"
       r="1.4501395" />
    <circle
       id="path3681-2-2-9"
       cx="67.5"
       cy="203.49998"
       style="fill:none;stroke:#000000;stroke-width:0.09972107;stroke-miterlimit:4;stroke-dasharray:none;stroke-opacity:1"
       r="1.4501395" />
    <circle
       id="path3681-2-2-0"
       cx="18.5"
       cy="262.49997"
       style="fill:none;stroke:#000000;stroke-width:0.09972107;stroke-miterlimit:4;stroke-dasharray:none;stroke-opacity:1"
       r="1.4501395" />
    <circle
       id="path3681-2-2-0-6"
       cx="67.5"
       cy="262.49997"
       style="fill:none;stroke:#000000;stroke-width:0.09972107;stroke-miterlimit:4;stroke-dasharray:none;stroke-opacity:1"
       r="1.4501395" />
    <rect
       id="rect3677-9"
       width="75.900009"
       height="99.900009"
       x="5.0499954"
       y="87.04998"
       style="fill:none;stroke:#000000;stroke-width:0.09999011;stroke-miterlimit:4;stroke-dasharray:none;stroke-opacity:1"
       rx="3.4999998"
       ry="3.5" />
    <circle
       id="path3681-7-7"
       cx="74.5"
       cy="180.49998"
       style="fill:none;stroke:#000000;stroke-width:0.09972107;stroke-miterlimit:4;stroke-dasharray:none;stroke-opacity:1"
       r="1.4501395" />
    <circle
       id="path3681-3"
       cx="11.5"
       cy="180.49998"
       style="fill:none;stroke:#000000;stroke-width:0.09972107;stroke-miterlimit:4;stroke-dasharray:none;stroke-opacity:1"
       r="1.4501395" />
    <circle
       id="path3681-7-6-6"
       cx="74.5"
       cy="93.499985"
       style="fill:none;stroke:#000000;stroke-width:0.09972107;stroke-miterlimit:4;stroke-dasharray:none;stroke-opacity:1"
       r="1.4501395" />
    <circle
       id="path3681-2-1"
       cx="11.5"
       cy="93.499985"
       style="fill:none;stroke:#000000;stroke-width:0.09972107;stroke-miterlimit:4;stroke-dasharray:none;stroke-opacity:1"
       r="1.4501395" />
    <rect
       style="fill:none;stroke:#ff0000;stroke-width:0.09998801;stroke-miterlimit:4;stroke-dasharray:none;stroke-opacity:1"
       id="rect4774"
       width="55.900013"
       height="79.900009"
       x="15.049994"
       y="97.04998"
       rx="3.5"
       ry="3.5" />
    <g
       aria-label="OPERATING SYSTEM DISPENSER"
       transform="matrix(0,-1.00071,1.0037874,0,-0.04457246,-0.17294101)"
       style="font-style:normal;font-weight:normal;font-size:10.58333302px;line-height:1.25;font-family:sans-serif;letter-spacing:0px;word-spacing:0px;fill:none;fill-opacity:1;stroke:#ff0000;stroke-width:0.1;stroke-miterlimit:4;stroke-dasharray:none;stroke-opacity:1"
       id="text4784">
      <path
         d="m -168.76665,26.53789 q -0.97014,0 -1.50482,0.71658 -0.53468,0.716579 -0.53468,2.017448 0,1.295355 0.53468,2.011935 0.53468,0.71658 1.50482,0.71658 0.97565,0 1.51033,-0.71658 0.53468,-0.71658 0.53468,-2.011935 0,-1.300869 -0.53468,-2.017448 -0.53468,-0.71658 -1.51033,-0.71658 z m 0,-1.537891 q 1.98437,0 3.10885,1.135504 1.12448,1.135503 1.12448,3.136415 0,1.995399 -1.12448,3.130902 -1.12448,1.135504 -3.10885,1.135504 -1.97887,0 -3.10886,-1.135504 -1.12448,-1.135503 -1.12448,-3.130902 0,-2.000912 1.12448,-3.136415 1.12999,-1.135504 3.10886,-1.135504 z"
         style="font-style:normal;font-variant:normal;font-weight:bold;font-stretch:normal;font-size:11.28888893px;font-family:sans-serif;-inkscape-font-specification:'sans-serif Bold';text-align:start;text-anchor:start;fill:none;stroke:#ff0000;stroke-width:0.1;stroke-miterlimit:4;stroke-dasharray:none;stroke-opacity:1"
         id="path4626"
         inkscape:connector-curvature="0" />
      <path
         d="m -162.9348,25.148827 h 3.52227 q 1.57096,0 2.40881,0.700044 0.84336,0.694531 0.84336,1.984375 0,1.295356 -0.84336,1.995399 -0.83785,0.694531 -2.40881,0.694531 h -1.40009 v 2.855295 h -2.12218 z m 2.12218,1.537891 v 2.298568 h 1.17409 q 0.61736,0 0.9536,-0.297657 0.33625,-0.303168 0.33625,-0.854383 0,-0.551216 -0.33625,-0.848872 -0.33624,-0.297656 -0.9536,-0.297656 z"
         style="font-style:normal;font-variant:normal;font-weight:bold;font-stretch:normal;font-size:11.28888893px;font-family:sans-serif;-inkscape-font-specification:'sans-serif Bold';text-align:start;text-anchor:start;fill:none;stroke:#ff0000;stroke-width:0.1;stroke-miterlimit:4;stroke-dasharray:none;stroke-opacity:1"
         id="path4628"
         inkscape:connector-curvature="0" />
      <path
         d="m -154.66657,25.148827 h 5.72713 v 1.604037 h -3.60495 v 1.532378 h 3.38998 v 1.604037 h -3.38998 v 1.885156 h 3.72622 v 1.604036 h -5.8484 z"
         style="font-style:normal;font-variant:normal;font-weight:bold;font-stretch:normal;font-size:11.28888893px;font-family:sans-serif;-inkscape-font-specification:'sans-serif Bold';text-align:start;text-anchor:start;fill:none;stroke:#ff0000;stroke-width:0.1;stroke-miterlimit:4;stroke-dasharray:none;stroke-opacity:1"
         id="path4630"
         inkscape:connector-curvature="0" />
      <path
         d="m -143.9344,28.797872 q 0.66697,0 0.9536,-0.248046 0.29214,-0.248047 0.29214,-0.815799 0,-0.56224 -0.29214,-0.804774 -0.28663,-0.242535 -0.9536,-0.242535 h -0.89297 v 2.111154 z m -0.89297,1.466233 v 3.114366 h -2.12218 v -8.229644 h 3.24114 q 1.62609,0 2.38125,0.545703 0.76068,0.545704 0.76068,1.725304 0,0.815799 -0.39687,1.339453 -0.39137,0.523655 -1.18512,0.771702 0.43546,0.09922 0.77722,0.451996 0.34726,0.347266 0.70004,1.058334 l 1.15204,2.337152 h -2.25998 l -1.00321,-2.045008 q -0.30317,-0.617361 -0.61736,-0.84336 -0.30869,-0.225998 -0.82683,-0.225998 z"
         style="font-style:normal;font-variant:normal;font-weight:bold;font-stretch:normal;font-size:11.28888893px;font-family:sans-serif;-inkscape-font-specification:'sans-serif Bold';text-align:start;text-anchor:start;fill:none;stroke:#ff0000;stroke-width:0.1;stroke-miterlimit:4;stroke-dasharray:none;stroke-opacity:1"
         id="path4632"
         inkscape:connector-curvature="0" />
      <path
         d="m -133.26839,31.879166 h -3.31831 l -0.52366,1.499305 h -2.1332 l 3.04822,-8.229644 h 2.53008 l 3.04822,8.229644 h -2.13321 z m -2.78915,-1.526867 h 2.25447 l -1.12448,-3.274218 z"
         style="font-style:normal;font-variant:normal;font-weight:bold;font-stretch:normal;font-size:11.28888893px;font-family:sans-serif;-inkscape-font-specification:'sans-serif Bold';text-align:start;text-anchor:start;fill:none;stroke:#ff0000;stroke-width:0.1;stroke-miterlimit:4;stroke-dasharray:none;stroke-opacity:1"
         id="path4634"
         inkscape:connector-curvature="0" />
      <path
         d="m -131.39426,25.148827 h 7.58472 v 1.604037 h -2.72851 v 6.625607 h -2.12218 v -6.625607 h -2.73403 z"
         style="font-style:normal;font-variant:normal;font-weight:bold;font-stretch:normal;font-size:11.28888893px;font-family:sans-serif;-inkscape-font-specification:'sans-serif Bold';text-align:start;text-anchor:start;fill:none;stroke:#ff0000;stroke-width:0.1;stroke-miterlimit:4;stroke-dasharray:none;stroke-opacity:1"
         id="path4636"
         inkscape:connector-curvature="0" />
      <path
         d="m -122.71813,25.148827 h 2.12218 v 8.229644 h -2.12218 z"
         style="font-style:normal;font-variant:normal;font-weight:bold;font-stretch:normal;font-size:11.28888893px;font-family:sans-serif;-inkscape-font-specification:'sans-serif Bold';text-align:start;text-anchor:start;fill:none;stroke:#ff0000;stroke-width:0.1;stroke-miterlimit:4;stroke-dasharray:none;stroke-opacity:1"
         id="path4638"
         inkscape:connector-curvature="0" />
      <path
         d="m -118.50684,25.148827 h 2.37022 l 2.9931,5.644445 v -5.644445 h 2.01194 v 8.229644 h -2.37023 l -2.9931,-5.644444 v 5.644444 h -2.01193 z"
         style="font-style:normal;font-variant:normal;font-weight:bold;font-stretch:normal;font-size:11.28888893px;font-family:sans-serif;-inkscape-font-specification:'sans-serif Bold';text-align:start;text-anchor:start;fill:none;stroke:#ff0000;stroke-width:0.1;stroke-miterlimit:4;stroke-dasharray:none;stroke-opacity:1"
         id="path4640"
         inkscape:connector-curvature="0" />
      <path
         d="m -101.65068,32.766622 q -0.79375,0.385851 -1.64813,0.578776 -0.85439,0.192926 -1.76389,0.192926 -2.05604,0 -3.25769,-1.146528 -1.20164,-1.15204 -1.20164,-3.119878 0,-1.989888 1.22369,-3.130903 1.2237,-1.141016 3.35139,-1.141016 0.82131,0 1.57097,0.15434 0.75516,0.154341 1.42213,0.457509 v 1.703255 q -0.68902,-0.391363 -1.37252,-0.584288 -0.678,-0.192925 -1.36151,-0.192925 -1.26779,0 -1.95681,0.711067 -0.68351,0.705556 -0.68351,2.022961 0,1.30638 0.66146,2.017447 0.66146,0.711068 1.87964,0.711068 0.33073,0 0.61185,-0.03859 0.28664,-0.0441 0.51263,-0.132292 v -1.598524 h -1.29535 v -1.422135 h 3.30729 z"
         style="font-style:normal;font-variant:normal;font-weight:bold;font-stretch:normal;font-size:11.28888893px;font-family:sans-serif;-inkscape-font-specification:'sans-serif Bold';text-align:start;text-anchor:start;fill:none;stroke:#ff0000;stroke-width:0.1;stroke-miterlimit:4;stroke-dasharray:none;stroke-opacity:1"
         id="path4642"
         inkscape:connector-curvature="0" />
      <path
         d="m -166.79881,39.51901 v 1.74184 q -0.678,-0.303169 -1.32292,-0.457509 -0.64492,-0.15434 -1.21819,-0.15434 -0.76067,0 -1.12448,0.209462 -0.3638,0.209462 -0.3638,0.650434 0,0.330729 0.24254,0.518142 0.24804,0.181901 0.89297,0.314193 l 0.90399,0.181901 q 1.37253,0.275608 1.9513,0.837847 0.57878,0.56224 0.57878,1.598524 0,1.361502 -0.81029,2.028473 -0.80477,0.661458 -2.46393,0.661458 -0.78273,0 -1.57097,-0.148828 -0.78823,-0.148828 -1.57647,-0.440972 v -1.79145 q 0.78824,0.418924 1.52135,0.633898 0.73863,0.209461 1.42214,0.209461 0.69453,0 1.06384,-0.23151 0.36932,-0.23151 0.36932,-0.661458 0,-0.385851 -0.25356,-0.595313 -0.24805,-0.209462 -0.9977,-0.374826 l -0.82131,-0.181901 q -1.23472,-0.264584 -1.80799,-0.84336 -0.56775,-0.578776 -0.56775,-1.559939 0,-1.22921 0.79375,-1.890668 0.79375,-0.661459 2.28203,-0.661459 0.678,0 1.39458,0.104731 0.71658,0.09922 1.48277,0.303169 z"
         style="font-style:normal;font-variant:normal;font-weight:bold;font-stretch:normal;font-size:11.28888893px;font-family:sans-serif;-inkscape-font-specification:'sans-serif Bold';text-align:start;text-anchor:start;fill:none;stroke:#ff0000;stroke-width:0.1;stroke-miterlimit:4;stroke-dasharray:none;stroke-opacity:1"
         id="path4644"
         inkscape:connector-curvature="0" />
      <path
         d="m -165.53653,39.259938 h 2.32062 l 1.87413,2.932466 1.87413,-2.932466 h 2.32613 l -3.13642,4.7625 v 3.467145 h -2.12218 v -3.467145 z"
         style="font-style:normal;font-variant:normal;font-weight:bold;font-stretch:normal;font-size:11.28888893px;font-family:sans-serif;-inkscape-font-specification:'sans-serif Bold';text-align:start;text-anchor:start;fill:none;stroke:#ff0000;stroke-width:0.1;stroke-miterlimit:4;stroke-dasharray:none;stroke-opacity:1"
         id="path4646"
         inkscape:connector-curvature="0" />
      <path
         d="m -150.48284,39.51901 v 1.74184 q -0.678,-0.303169 -1.32292,-0.457509 -0.64492,-0.15434 -1.21818,-0.15434 -0.76068,0 -1.12448,0.209462 -0.36381,0.209462 -0.36381,0.650434 0,0.330729 0.24254,0.518142 0.24805,0.181901 0.89297,0.314193 l 0.90399,0.181901 q 1.37253,0.275608 1.9513,0.837847 0.57878,0.56224 0.57878,1.598524 0,1.361502 -0.81029,2.028473 -0.80477,0.661458 -2.46393,0.661458 -0.78273,0 -1.57096,-0.148828 -0.78824,-0.148828 -1.57648,-0.440972 v -1.79145 q 0.78824,0.418924 1.52135,0.633898 0.73863,0.209461 1.42214,0.209461 0.69453,0 1.06385,-0.23151 0.36931,-0.23151 0.36931,-0.661458 0,-0.385851 -0.25356,-0.595313 -0.24805,-0.209462 -0.9977,-0.374826 l -0.82131,-0.181901 q -1.23472,-0.264584 -1.80799,-0.84336 -0.56775,-0.578776 -0.56775,-1.559939 0,-1.22921 0.79375,-1.890668 0.79375,-0.661459 2.28203,-0.661459 0.678,0 1.39458,0.104731 0.71658,0.09922 1.48277,0.303169 z"
         style="font-style:normal;font-variant:normal;font-weight:bold;font-stretch:normal;font-size:11.28888893px;font-family:sans-serif;-inkscape-font-specification:'sans-serif Bold';text-align:start;text-anchor:start;fill:none;stroke:#ff0000;stroke-width:0.1;stroke-miterlimit:4;stroke-dasharray:none;stroke-opacity:1"
         id="path4648"
         inkscape:connector-curvature="0" />
      <path
         d="m -149.05519,39.259938 h 7.58472 v 1.604037 h -2.72852 v 6.625608 h -2.12218 v -6.625608 h -2.73402 z"
         style="font-style:normal;font-variant:normal;font-weight:bold;font-stretch:normal;font-size:11.28888893px;font-family:sans-serif;-inkscape-font-specification:'sans-serif Bold';text-align:start;text-anchor:start;fill:none;stroke:#ff0000;stroke-width:0.1;stroke-miterlimit:4;stroke-dasharray:none;stroke-opacity:1"
         id="path4650"
         inkscape:connector-curvature="0" />
      <path
         d="m -140.37907,39.259938 h 5.72713 v 1.604037 h -3.60495 v 1.532378 h 3.38998 v 1.604037 h -3.38998 v 1.885156 h 3.72622 v 1.604037 h -5.8484 z"
         style="font-style:normal;font-variant:normal;font-weight:bold;font-stretch:normal;font-size:11.28888893px;font-family:sans-serif;-inkscape-font-specification:'sans-serif Bold';text-align:start;text-anchor:start;fill:none;stroke:#ff0000;stroke-width:0.1;stroke-miterlimit:4;stroke-dasharray:none;stroke-opacity:1"
         id="path4652"
         inkscape:connector-curvature="0" />
      <path
         d="m -132.66205,39.259938 h 2.70095 l 1.87413,4.40421 1.88516,-4.40421 h 2.69544 v 8.229645 h -2.00642 v -6.019271 l -1.89618,4.437283 h -1.34497 l -1.89618,-4.437283 v 6.019271 h -2.01193 z"
         style="font-style:normal;font-variant:normal;font-weight:bold;font-stretch:normal;font-size:11.28888893px;font-family:sans-serif;-inkscape-font-specification:'sans-serif Bold';text-align:start;text-anchor:start;fill:none;stroke:#ff0000;stroke-width:0.1;stroke-miterlimit:4;stroke-dasharray:none;stroke-opacity:1"
         id="path4654"
         inkscape:connector-curvature="0" />
      <path
         d="m -170.40376,54.975086 v 5.021571 h 0.76068 q 1.30086,0 1.98437,-0.644922 0.68902,-0.644922 0.68902,-1.874132 0,-1.223698 -0.68351,-1.863107 -0.6835,-0.63941 -1.98988,-0.63941 z m -2.12218,-1.604036 h 2.23793 q 1.87414,0 2.78915,0.270095 0.92053,0.264583 1.57648,0.903993 0.57877,0.556728 0.85989,1.284332 0.28112,0.727604 0.28112,1.648133 0,0.931554 -0.28112,1.664671 -0.28112,0.727604 -0.85989,1.284331 -0.66146,0.63941 -1.5875,0.909505 -0.92604,0.264584 -2.77813,0.264584 h -2.23793 z"
         style="font-style:normal;font-variant:normal;font-weight:bold;font-stretch:normal;font-size:11.28888893px;font-family:sans-serif;-inkscape-font-specification:'sans-serif Bold';text-align:start;text-anchor:start;fill:none;stroke:#ff0000;stroke-width:0.1;stroke-miterlimit:4;stroke-dasharray:none;stroke-opacity:1"
         id="path4656"
         inkscape:connector-curvature="0" />
      <path
         d="m -163.15528,53.37105 h 2.12218 v 8.229644 h -2.12218 z"
         style="font-style:normal;font-variant:normal;font-weight:bold;font-stretch:normal;font-size:11.28888893px;font-family:sans-serif;-inkscape-font-specification:'sans-serif Bold';text-align:start;text-anchor:start;fill:none;stroke:#ff0000;stroke-width:0.1;stroke-miterlimit:4;stroke-dasharray:none;stroke-opacity:1"
         id="path4658"
         inkscape:connector-curvature="0" />
      <path
         d="m -153.21687,53.630121 v 1.74184 q -0.67799,-0.303168 -1.32292,-0.457509 -0.64492,-0.15434 -1.21818,-0.15434 -0.76068,0 -1.12448,0.209462 -0.3638,0.209462 -0.3638,0.650434 0,0.330729 0.24253,0.518142 0.24805,0.181901 0.89297,0.314193 l 0.90399,0.181901 q 1.37253,0.275608 1.95131,0.837847 0.57877,0.56224 0.57877,1.598525 0,1.361501 -0.81028,2.028472 -0.80478,0.661458 -2.46394,0.661458 -0.78272,0 -1.57096,-0.148828 -0.78824,-0.148828 -1.57648,-0.440972 v -1.79145 q 0.78824,0.418924 1.52136,0.633898 0.73863,0.209462 1.42213,0.209462 0.69453,0 1.06385,-0.231511 0.36931,-0.23151 0.36931,-0.661458 0,-0.385851 -0.25356,-0.595313 -0.24804,-0.209462 -0.9977,-0.374826 l -0.82131,-0.181901 q -1.23472,-0.264584 -1.80798,-0.84336 -0.56775,-0.578776 -0.56775,-1.559939 0,-1.22921 0.79375,-1.890668 0.79375,-0.661459 2.28203,-0.661459 0.67799,0 1.39457,0.104731 0.71658,0.09922 1.48277,0.303169 z"
         style="font-style:normal;font-variant:normal;font-weight:bold;font-stretch:normal;font-size:11.28888893px;font-family:sans-serif;-inkscape-font-specification:'sans-serif Bold';text-align:start;text-anchor:start;fill:none;stroke:#ff0000;stroke-width:0.1;stroke-miterlimit:4;stroke-dasharray:none;stroke-opacity:1"
         id="path4660"
         inkscape:connector-curvature="0" />
      <path
         d="m -150.80806,53.37105 h 3.52227 q 1.57096,0 2.40881,0.700043 0.84336,0.694531 0.84336,1.984375 0,1.295356 -0.84336,1.995399 -0.83785,0.694532 -2.40881,0.694532 h -1.40009 v 2.855295 h -2.12218 z m 2.12218,1.53789 v 2.298568 h 1.17409 q 0.61736,0 0.9536,-0.297656 0.33624,-0.303169 0.33624,-0.854384 0,-0.551215 -0.33624,-0.848872 -0.33624,-0.297656 -0.9536,-0.297656 z"
         style="font-style:normal;font-variant:normal;font-weight:bold;font-stretch:normal;font-size:11.28888893px;font-family:sans-serif;-inkscape-font-specification:'sans-serif Bold';text-align:start;text-anchor:start;fill:none;stroke:#ff0000;stroke-width:0.1;stroke-miterlimit:4;stroke-dasharray:none;stroke-opacity:1"
         id="path4662"
         inkscape:connector-curvature="0" />
      <path
         d="m -142.53983,53.37105 h 5.72713 v 1.604036 h -3.60495 v 1.532379 h 3.38997 v 1.604036 h -3.38997 v 1.885156 h 3.72621 v 1.604037 h -5.84839 z"
         style="font-style:normal;font-variant:normal;font-weight:bold;font-stretch:normal;font-size:11.28888893px;font-family:sans-serif;-inkscape-font-specification:'sans-serif Bold';text-align:start;text-anchor:start;fill:none;stroke:#ff0000;stroke-width:0.1;stroke-miterlimit:4;stroke-dasharray:none;stroke-opacity:1"
         id="path4664"
         inkscape:connector-curvature="0" />
      <path
         d="m -134.82282,53.37105 h 2.37023 l 2.9931,5.644444 V 53.37105 h 2.01193 v 8.229644 h -2.37022 l -2.9931,-5.644445 v 5.644445 h -2.01194 z"
         style="font-style:normal;font-variant:normal;font-weight:bold;font-stretch:normal;font-size:11.28888893px;font-family:sans-serif;-inkscape-font-specification:'sans-serif Bold';text-align:start;text-anchor:start;fill:none;stroke:#ff0000;stroke-width:0.1;stroke-miterlimit:4;stroke-dasharray:none;stroke-opacity:1"
         id="path4666"
         inkscape:connector-curvature="0" />
      <path
         d="m -119.63683,53.630121 v 1.74184 q -0.678,-0.303168 -1.32292,-0.457509 -0.64492,-0.15434 -1.21819,-0.15434 -0.76067,0 -1.12448,0.209462 -0.3638,0.209462 -0.3638,0.650434 0,0.330729 0.24254,0.518142 0.24804,0.181901 0.89297,0.314193 l 0.90399,0.181901 q 1.37252,0.275608 1.9513,0.837847 0.57878,0.56224 0.57878,1.598525 0,1.361501 -0.81029,2.028472 -0.80477,0.661458 -2.46393,0.661458 -0.78273,0 -1.57097,-0.148828 -0.78823,-0.148828 -1.57647,-0.440972 v -1.79145 q 0.78824,0.418924 1.52135,0.633898 0.73863,0.209462 1.42214,0.209462 0.69453,0 1.06384,-0.231511 0.36932,-0.23151 0.36932,-0.661458 0,-0.385851 -0.25356,-0.595313 -0.24805,-0.209462 -0.9977,-0.374826 l -0.82131,-0.181901 q -1.23472,-0.264584 -1.80799,-0.84336 -0.56775,-0.578776 -0.56775,-1.559939 0,-1.22921 0.79375,-1.890668 0.79375,-0.661459 2.28203,-0.661459 0.678,0 1.39458,0.104731 0.71658,0.09922 1.48277,0.303169 z"
         style="font-style:normal;font-variant:normal;font-weight:bold;font-stretch:normal;font-size:11.28888893px;font-family:sans-serif;-inkscape-font-specification:'sans-serif Bold';text-align:start;text-anchor:start;fill:none;stroke:#ff0000;stroke-width:0.1;stroke-miterlimit:4;stroke-dasharray:none;stroke-opacity:1"
         id="path4668"
         inkscape:connector-curvature="0" />
      <path
         d="m -117.22802,53.37105 h 5.72712 v 1.604036 h -3.60495 v 1.532379 h 3.38998 v 1.604036 h -3.38998 v 1.885156 h 3.72622 v 1.604037 h -5.84839 z"
         style="font-style:normal;font-variant:normal;font-weight:bold;font-stretch:normal;font-size:11.28888893px;font-family:sans-serif;-inkscape-font-specification:'sans-serif Bold';text-align:start;text-anchor:start;fill:none;stroke:#ff0000;stroke-width:0.1;stroke-miterlimit:4;stroke-dasharray:none;stroke-opacity:1"
         id="path4670"
         inkscape:connector-curvature="0" />
      <path
         d="m -106.49586,57.020095 q 0.66697,0 0.9536,-0.248047 0.29214,-0.248047 0.29214,-0.815799 0,-0.562239 -0.29214,-0.804774 -0.28663,-0.242535 -0.9536,-0.242535 h -0.89297 v 2.111155 z m -0.89297,1.466232 v 3.114367 h -2.12218 V 53.37105 h 3.24115 q 1.62608,0 2.38125,0.545703 0.76067,0.545703 0.76067,1.725304 0,0.815798 -0.39687,1.339453 -0.39136,0.523654 -1.18511,0.771701 0.43546,0.09922 0.77721,0.451997 0.34726,0.347265 0.70004,1.058333 l 1.15204,2.337153 h -2.25998 l -1.00321,-2.045009 q -0.30317,-0.617361 -0.61736,-0.843359 -0.30868,-0.225999 -0.82683,-0.225999 z"
         style="font-style:normal;font-variant:normal;font-weight:bold;font-stretch:normal;font-size:11.28888893px;font-family:sans-serif;-inkscape-font-specification:'sans-serif Bold';text-align:start;text-anchor:start;fill:none;stroke:#ff0000;stroke-width:0.1;stroke-miterlimit:4;stroke-dasharray:none;stroke-opacity:1"
         id="path4672"
         inkscape:connector-curvature="0" />
    </g>
    <text
       xml:space="preserve"
       style="font-style:normal;font-weight:normal;font-size:8.46666622px;line-height:1.25;font-family:sans-serif;letter-spacing:0px;word-spacing:0px;fill:none;fill-opacity:1;stroke:#000000;stroke-width:0.1;stroke-miterlimit:4;stroke-dasharray:none;stroke-opacity:1;"
       x="109.23251"
       y="161.49161"
       id="text4819"><tspan
         sodipodi:role="line"
         id="tspan4817"
         x="109.23251"
         y="168.98262"
         style="stroke-width:0.1;stroke-miterlimit:4;stroke-dasharray:none;stroke:#000000;stroke-opacity:1;fill:none;" /></text>
    <g
       aria-label="MANUAL: 1. CONNECT ETHERNET 2. TURN ON COMPUTER"
       transform="matrix(0,1.0120873,1.0107456,0,-70.764089,380.61516)"
       style="font-style:normal;font-weight:normal;font-size:8.46666622px;line-height:1.25;font-family:sans-serif;letter-spacing:0px;word-spacing:0px;fill:none;fill-opacity:1;stroke:#ff0000;stroke-width:0.09999882;stroke-miterlimit:4;stroke-dasharray:none;stroke-opacity:1"
       id="text4805">
      <path
         d="m -172.8248,99.742824 h 0.88143 l 1.1157,2.975186 1.12155,-2.975186 h 0.88142 v 4.371996 h -0.57688 v -3.83904 l -1.1274,2.99861 h -0.59446 l -1.1274,-2.99861 v 3.83904 h -0.57396 z"
         style="font-size:5.99722242px;fill:none;fill-opacity:1;stroke:#ff0000;stroke-width:0.09999882;stroke-miterlimit:4;stroke-dasharray:none;stroke-opacity:1"
         id="path4545"
         inkscape:connector-curvature="0" />
      <path
         d="m -166.18627,100.32556 -0.80236,2.17575 h 1.60765 z m -0.33383,-0.582736 h 0.67059 l 1.66622,4.371996 h -0.61495 l -0.39825,-1.12155 h -1.97077 l -0.39825,1.12155 h -0.62374 z"
         style="font-size:5.99722242px;fill:none;fill-opacity:1;stroke:#ff0000;stroke-width:0.09999882;stroke-miterlimit:4;stroke-dasharray:none;stroke-opacity:1"
         id="path4547"
         inkscape:connector-curvature="0" />
      <path
         d="m -163.54784,99.742824 h 0.7965 l 1.93856,3.657486 v -3.657486 h 0.57395 v 4.371996 h -0.79651 l -1.93855,-3.65748 v 3.65748 h -0.57395 z"
         style="font-size:5.99722242px;fill:none;fill-opacity:1;stroke:#ff0000;stroke-width:0.09999882;stroke-miterlimit:4;stroke-dasharray:none;stroke-opacity:1"
         id="path4549"
         inkscape:connector-curvature="0" />
      <path
         d="m -159.12899,99.742824 h 0.59445 v 2.655996 q 0,0.7028 0.25476,1.0132 0.25477,0.30748 0.82579,0.30748 0.5681,0 0.82287,-0.30748 0.25476,-0.3104 0.25476,-1.0132 v -2.655996 h 0.59445 v 2.729206 q 0,0.85507 -0.42461,1.29139 -0.42168,0.43632 -1.24747,0.43632 -0.82871,0 -1.25332,-0.43632 -0.42168,-0.43632 -0.42168,-1.29139 z"
         style="font-size:5.99722242px;fill:none;fill-opacity:1;stroke:#ff0000;stroke-width:0.09999882;stroke-miterlimit:4;stroke-dasharray:none;stroke-opacity:1"
         id="path4551"
         inkscape:connector-curvature="0" />
      <path
         d="m -153.2079,100.32556 -0.80237,2.17575 h 1.60766 z m -0.33383,-0.582736 h 0.67058 l 1.66622,4.371996 h -0.61495 l -0.39825,-1.12155 h -1.97077 l -0.39825,1.12155 h -0.62373 z"
         style="font-size:5.99722242px;fill:none;fill-opacity:1;stroke:#ff0000;stroke-width:0.09999882;stroke-miterlimit:4;stroke-dasharray:none;stroke-opacity:1"
         id="path4553"
         inkscape:connector-curvature="0" />
      <path
         d="m -150.56948,99.742824 h 0.59152 v 3.874186 h 2.1289 v 0.49781 h -2.72042 z"
         style="font-size:5.99722242px;fill:none;fill-opacity:1;stroke:#ff0000;stroke-width:0.09999882;stroke-miterlimit:4;stroke-dasharray:none;stroke-opacity:1"
         id="path4555"
         inkscape:connector-curvature="0" />
      <path
         d="m -147.11698,103.37103 h 0.61788 v 0.74379 h -0.61788 z m 0,-2.35731 h 0.61788 v 0.7438 h -0.61788 z"
         style="font-size:5.99722242px;fill:none;fill-opacity:1;stroke:#ff0000;stroke-width:0.09999882;stroke-miterlimit:4;stroke-dasharray:none;stroke-opacity:1"
         id="path4557"
         inkscape:connector-curvature="0" />
      <path
         d="m -172.66959,114.20034 h 0.96634 v -3.33537 l -1.05127,0.21084 V 110.537 l 1.04542,-0.21084 h 0.59152 v 3.87418 h 0.96635 v 0.49782 h -2.51836 z"
         style="font-size:5.99722242px;fill:none;fill-opacity:1;stroke:#ff0000;stroke-width:0.09999882;stroke-miterlimit:4;stroke-dasharray:none;stroke-opacity:1"
         id="path4559"
         inkscape:connector-curvature="0" />
      <path
         d="m -168.95354,113.95436 h 0.61788 v 0.7438 h -0.61788 z"
         style="font-size:5.99722242px;fill:none;fill-opacity:1;stroke:#ff0000;stroke-width:0.09999882;stroke-miterlimit:4;stroke-dasharray:none;stroke-opacity:1"
         id="path4561"
         inkscape:connector-curvature="0" />
      <path
         d="m -161.91383,110.66291 v 0.62374 q -0.29869,-0.27819 -0.63838,-0.41582 -0.33676,-0.13764 -0.71744,-0.13764 -0.74965,0 -1.14791,0.45975 -0.39825,0.45682 -0.39825,1.32361 0,0.86386 0.39825,1.3236 0.39826,0.45682 1.14791,0.45682 0.38068,0 0.71744,-0.13763 0.33969,-0.13763 0.63838,-0.41582 v 0.61788 q -0.31041,0.21084 -0.65888,0.31626 -0.34554,0.10542 -0.73208,0.10542 -0.99271,0 -1.56373,-0.60617 -0.57103,-0.60909 -0.57103,-1.66036 0,-1.0542 0.57103,-1.66037 0.57102,-0.60909 1.56373,-0.60909 0.39239,0 0.73794,0.10542 0.34847,0.10249 0.65302,0.3104 z"
         style="font-size:5.99722242px;fill:none;fill-opacity:1;stroke:#ff0000;stroke-width:0.09999882;stroke-miterlimit:4;stroke-dasharray:none;stroke-opacity:1"
         id="path4563"
         inkscape:connector-curvature="0" />
      <path
         d="m -159.21977,110.72734 q -0.64423,0 -1.02492,0.48024 -0.37775,0.48025 -0.37775,1.30897 0,0.82579 0.37775,1.30603 0.38069,0.48025 1.02492,0.48025 0.64423,0 1.01906,-0.48025 0.37775,-0.48024 0.37775,-1.30603 0,-0.82872 -0.37775,-1.30897 -0.37483,-0.48024 -1.01906,-0.48024 z m 0,-0.48025 q 0.9195,0 1.47002,0.61788 0.55053,0.61495 0.55053,1.65158 0,1.0337 -0.55053,1.65158 -0.55052,0.61495 -1.47002,0.61495 -0.92242,0 -1.47588,-0.61495 -0.55053,-0.61495 -0.55053,-1.65158 0,-1.03663 0.55053,-1.65158 0.55346,-0.61788 1.47588,-0.61788 z"
         style="font-size:5.99722242px;fill:none;fill-opacity:1;stroke:#ff0000;stroke-width:0.09999882;stroke-miterlimit:4;stroke-dasharray:none;stroke-opacity:1"
         id="path4565"
         inkscape:connector-curvature="0" />
      <path
         d="m -156.27387,110.32616 h 0.79651 l 1.93855,3.65748 v -3.65748 h 0.57396 v 4.372 h -0.79651 l -1.93856,-3.65749 v 3.65749 h -0.57395 z"
         style="font-size:5.99722242px;fill:none;fill-opacity:1;stroke:#ff0000;stroke-width:0.09999882;stroke-miterlimit:4;stroke-dasharray:none;stroke-opacity:1"
         id="path4567"
         inkscape:connector-curvature="0" />
      <path
         d="m -151.78766,110.32616 h 0.7965 l 1.93856,3.65748 v -3.65748 h 0.57395 v 4.372 h -0.79651 l -1.93855,-3.65749 v 3.65749 h -0.57395 z"
         style="font-size:5.99722242px;fill:none;fill-opacity:1;stroke:#ff0000;stroke-width:0.09999882;stroke-miterlimit:4;stroke-dasharray:none;stroke-opacity:1"
         id="path4569"
         inkscape:connector-curvature="0" />
      <path
         d="m -147.30146,110.32616 h 2.76434 v 0.49781 h -2.17282 v 1.29433 h 2.08204 v 0.49781 h -2.08204 v 1.58423 h 2.22553 v 0.49782 h -2.81705 z"
         style="font-size:5.99722242px;fill:none;fill-opacity:1;stroke:#ff0000;stroke-width:0.09999882;stroke-miterlimit:4;stroke-dasharray:none;stroke-opacity:1"
         id="path4571"
         inkscape:connector-curvature="0" />
      <path
         d="m -140.23247,110.66291 v 0.62374 q -0.29869,-0.27819 -0.63838,-0.41582 -0.33675,-0.13764 -0.71744,-0.13764 -0.74965,0 -1.1479,0.45975 -0.39826,0.45682 -0.39826,1.32361 0,0.86386 0.39826,1.3236 0.39825,0.45682 1.1479,0.45682 0.38069,0 0.71744,-0.13763 0.33969,-0.13763 0.63838,-0.41582 v 0.61788 q -0.3104,0.21084 -0.65887,0.31626 -0.34555,0.10542 -0.73209,0.10542 -0.9927,0 -1.56373,-0.60617 -0.57102,-0.60909 -0.57102,-1.66036 0,-1.0542 0.57102,-1.66037 0.57103,-0.60909 1.56373,-0.60909 0.3924,0 0.73794,0.10542 0.34847,0.10249 0.65302,0.3104 z"
         style="font-size:5.99722242px;fill:none;fill-opacity:1;stroke:#ff0000;stroke-width:0.09999882;stroke-miterlimit:4;stroke-dasharray:none;stroke-opacity:1"
         id="path4573"
         inkscape:connector-curvature="0" />
      <path
         d="m -139.91914,110.32616 h 3.69848 v 0.49781 h -1.55201 v 3.87419 h -0.59445 v -3.87419 h -1.55202 z"
         style="font-size:5.99722242px;fill:none;fill-opacity:1;stroke:#ff0000;stroke-width:0.09999882;stroke-miterlimit:4;stroke-dasharray:none;stroke-opacity:1"
         id="path4575"
         inkscape:connector-curvature="0" />
      <path
         d="m -133.73743,110.32616 h 2.76434 v 0.49781 h -2.17282 v 1.29433 h 2.08204 v 0.49781 h -2.08204 v 1.58423 h 2.22553 v 0.49782 h -2.81705 z"
         style="font-size:5.99722242px;fill:none;fill-opacity:1;stroke:#ff0000;stroke-width:0.09999882;stroke-miterlimit:4;stroke-dasharray:none;stroke-opacity:1"
         id="path4577"
         inkscape:connector-curvature="0" />
      <path
         d="m -130.54848,110.32616 h 3.69849 v 0.49781 h -1.55202 v 3.87419 h -0.59445 v -3.87419 h -1.55202 z"
         style="font-size:5.99722242px;fill:none;fill-opacity:1;stroke:#ff0000;stroke-width:0.09999882;stroke-miterlimit:4;stroke-dasharray:none;stroke-opacity:1"
         id="path4579"
         inkscape:connector-curvature="0" />
      <path
         d="m -126.27604,110.32616 h 0.59152 v 1.79214 h 2.1494 v -1.79214 h 0.59152 v 4.372 h -0.59152 v -2.08205 h -2.1494 v 2.08205 h -0.59152 z"
         style="font-size:5.99722242px;fill:none;fill-opacity:1;stroke:#ff0000;stroke-width:0.09999882;stroke-miterlimit:4;stroke-dasharray:none;stroke-opacity:1"
         id="path4581"
         inkscape:connector-curvature="0" />
      <path
         d="m -121.76641,110.32616 h 2.76434 v 0.49781 h -2.17282 v 1.29433 h 2.08204 v 0.49781 h -2.08204 v 1.58423 h 2.22553 v 0.49782 h -2.81705 z"
         style="font-size:5.99722242px;fill:none;fill-opacity:1;stroke:#ff0000;stroke-width:0.09999882;stroke-miterlimit:4;stroke-dasharray:none;stroke-opacity:1"
         id="path4583"
         inkscape:connector-curvature="0" />
      <path
         d="m -115.89804,112.64832 q 0.19034,0.0644 0.36897,0.27527 0.18156,0.21084 0.36312,0.57981 l 0.6003,1.19476 h -0.63544 l -0.55932,-1.12156 q -0.21669,-0.43925 -0.42168,-0.58273 -0.20205,-0.14349 -0.55345,-0.14349 h -0.64423 v 1.84778 h -0.59153 v -4.372 h 1.33532 q 0.74966,0 1.11863,0.31333 0.36897,0.31333 0.36897,0.94585 0,0.41289 -0.19327,0.68523 -0.19035,0.27233 -0.55639,0.37775 z m -1.48173,-1.83606 v 1.55202 h 0.74379 q 0.42754,0 0.64424,-0.1962 0.21962,-0.19913 0.21962,-0.58274 0,-0.38361 -0.21962,-0.57688 -0.2167,-0.1962 -0.64424,-0.1962 z"
         style="font-size:5.99722242px;fill:none;fill-opacity:1;stroke:#ff0000;stroke-width:0.09999882;stroke-miterlimit:4;stroke-dasharray:none;stroke-opacity:1"
         id="path4585"
         inkscape:connector-curvature="0" />
      <path
         d="m -113.80135,110.32616 h 0.7965 l 1.93856,3.65748 v -3.65748 h 0.57395 v 4.372 h -0.7965 l -1.93856,-3.65749 v 3.65749 h -0.57395 z"
         style="font-size:5.99722242px;fill:none;fill-opacity:1;stroke:#ff0000;stroke-width:0.09999882;stroke-miterlimit:4;stroke-dasharray:none;stroke-opacity:1"
         id="path4587"
         inkscape:connector-curvature="0" />
      <path
         d="m -109.31515,110.32616 h 2.76435 v 0.49781 h -2.17283 v 1.29433 h 2.08205 v 0.49781 h -2.08205 v 1.58423 h 2.22554 v 0.49782 h -2.81706 z"
         style="font-size:5.99722242px;fill:none;fill-opacity:1;stroke:#ff0000;stroke-width:0.09999882;stroke-miterlimit:4;stroke-dasharray:none;stroke-opacity:1"
         id="path4589"
         inkscape:connector-curvature="0" />
      <path
         d="m -106.1262,110.32616 h 3.69849 v 0.49781 h -1.55202 v 3.87419 h -0.59445 v -3.87419 h -1.55202 z"
         style="font-size:5.99722242px;fill:none;fill-opacity:1;stroke:#ff0000;stroke-width:0.09999882;stroke-miterlimit:4;stroke-dasharray:none;stroke-opacity:1"
         id="path4591"
         inkscape:connector-curvature="0" />
      <path
         d="m -172.26256,124.78367 h 2.06448 v 0.49782 h -2.77606 v -0.49782 q 0.33676,-0.34847 0.91657,-0.93414 0.58273,-0.58859 0.73208,-0.75843 0.28405,-0.31919 0.39532,-0.53882 0.11421,-0.22255 0.11421,-0.43632 0,-0.34847 -0.24598,-0.56809 -0.24305,-0.21963 -0.63545,-0.21963 -0.27819,0 -0.58859,0.0966 -0.30748,0.0966 -0.65888,0.29283 v -0.59738 q 0.35726,-0.14349 0.66766,-0.2167 0.3104,-0.0732 0.5681,-0.0732 0.67937,0 1.08348,0.33969 0.40411,0.33969 0.40411,0.90778 0,0.26941 -0.10249,0.51246 -0.0996,0.24012 -0.36604,0.5681 -0.0732,0.0849 -0.46561,0.49196 -0.39239,0.40411 -1.10691,1.13326 z"
         style="font-size:5.99722242px;fill:none;fill-opacity:1;stroke:#ff0000;stroke-width:0.09999882;stroke-miterlimit:4;stroke-dasharray:none;stroke-opacity:1"
         id="path4593"
         inkscape:connector-curvature="0" />
      <path
         d="m -168.95354,124.53769 h 0.61788 v 0.7438 h -0.61788 z"
         style="font-size:5.99722242px;fill:none;fill-opacity:1;stroke:#ff0000;stroke-width:0.09999882;stroke-miterlimit:4;stroke-dasharray:none;stroke-opacity:1"
         id="path4595"
         inkscape:connector-curvature="0" />
      <path
         d="m -165.79387,120.90949 h 3.69848 v 0.49782 h -1.55202 v 3.87418 h -0.59445 v -3.87418 h -1.55201 z"
         style="font-size:5.99722242px;fill:none;fill-opacity:1;stroke:#ff0000;stroke-width:0.09999882;stroke-miterlimit:4;stroke-dasharray:none;stroke-opacity:1"
         id="path4597"
         inkscape:connector-curvature="0" />
      <path
         d="m -161.58879,120.90949 h 0.59445 v 2.656 q 0,0.7028 0.25477,1.0132 0.25476,0.30747 0.82579,0.30747 0.56809,0 0.82286,-0.30747 0.25476,-0.3104 0.25476,-1.0132 v -2.656 h 0.59445 v 2.7292 q 0,0.85508 -0.42461,1.2914 -0.42168,0.43632 -1.24746,0.43632 -0.82872,0 -1.25333,-0.43632 -0.42168,-0.43632 -0.42168,-1.2914 z"
         style="font-size:5.99722242px;fill:none;fill-opacity:1;stroke:#ff0000;stroke-width:0.09999882;stroke-miterlimit:4;stroke-dasharray:none;stroke-opacity:1"
         id="path4599"
         inkscape:connector-curvature="0" />
      <path
         d="m -155.05568,123.23166 q 0.19034,0.0644 0.36897,0.27526 0.18155,0.21084 0.36311,0.57981 l 0.60031,1.19476 h -0.63545 l -0.55931,-1.12155 q -0.2167,-0.43925 -0.42168,-0.58274 -0.20205,-0.14349 -0.55345,-0.14349 h -0.64424 v 1.84778 h -0.59152 v -4.372 h 1.33532 q 0.74965,0 1.11862,0.31333 0.36897,0.31333 0.36897,0.94585 0,0.4129 -0.19327,0.68523 -0.19034,0.27234 -0.55638,0.37776 z m -1.48174,-1.83607 v 1.55202 h 0.7438 q 0.42753,0 0.64423,-0.1962 0.21963,-0.19913 0.21963,-0.58274 0,-0.38361 -0.21963,-0.57688 -0.2167,-0.1962 -0.64423,-0.1962 z"
         style="font-size:5.99722242px;fill:none;fill-opacity:1;stroke:#ff0000;stroke-width:0.09999882;stroke-miterlimit:4;stroke-dasharray:none;stroke-opacity:1"
         id="path4601"
         inkscape:connector-curvature="0" />
      <path
         d="m -152.959,120.90949 h 0.79651 l 1.93855,3.65749 v -3.65749 h 0.57396 v 4.372 h -0.79651 l -1.93855,-3.65749 v 3.65749 h -0.57396 z"
         style="font-size:5.99722242px;fill:none;fill-opacity:1;stroke:#ff0000;stroke-width:0.09999882;stroke-miterlimit:4;stroke-dasharray:none;stroke-opacity:1"
         id="path4603"
         inkscape:connector-curvature="0" />
      <path
         d="m -144.78895,121.31067 q -0.64424,0 -1.02492,0.48025 -0.37775,0.48024 -0.37775,1.30896 0,0.82579 0.37775,1.30604 0.38068,0.48024 1.02492,0.48024 0.64423,0 1.01906,-0.48024 0.37775,-0.48025 0.37775,-1.30604 0,-0.82872 -0.37775,-1.30896 -0.37483,-0.48025 -1.01906,-0.48025 z m 0,-0.48025 q 0.91949,0 1.47002,0.61788 0.55053,0.61495 0.55053,1.65158 0,1.0337 -0.55053,1.65158 -0.55053,0.61495 -1.47002,0.61495 -0.92243,0 -1.47588,-0.61495 -0.55053,-0.61495 -0.55053,-1.65158 0,-1.03663 0.55053,-1.65158 0.55345,-0.61788 1.47588,-0.61788 z"
         style="font-size:5.99722242px;fill:none;fill-opacity:1;stroke:#ff0000;stroke-width:0.09999882;stroke-miterlimit:4;stroke-dasharray:none;stroke-opacity:1"
         id="path4605"
         inkscape:connector-curvature="0" />
      <path
         d="m -141.84305,120.90949 h 0.7965 l 1.93856,3.65749 v -3.65749 h 0.57395 v 4.372 h -0.7965 l -1.93856,-3.65749 v 3.65749 h -0.57395 z"
         style="font-size:5.99722242px;fill:none;fill-opacity:1;stroke:#ff0000;stroke-width:0.09999882;stroke-miterlimit:4;stroke-dasharray:none;stroke-opacity:1"
         id="path4607"
         inkscape:connector-curvature="0" />
      <path
         d="m -132.1737,121.24625 v 0.62373 q -0.29869,-0.27819 -0.63838,-0.41582 -0.33676,-0.13763 -0.71744,-0.13763 -0.74965,0 -1.14791,0.45975 -0.39825,0.45682 -0.39825,1.3236 0,0.86386 0.39825,1.32361 0.39826,0.45682 1.14791,0.45682 0.38068,0 0.71744,-0.13764 0.33969,-0.13763 0.63838,-0.41582 v 0.61788 q -0.31041,0.21084 -0.65888,0.31626 -0.34554,0.10542 -0.73208,0.10542 -0.9927,0 -1.56373,-0.60617 -0.57102,-0.60909 -0.57102,-1.66036 0,-1.0542 0.57102,-1.66036 0.57103,-0.6091 1.56373,-0.6091 0.3924,0 0.73794,0.10542 0.34847,0.1025 0.65302,0.31041 z"
         style="font-size:5.99722242px;fill:none;fill-opacity:1;stroke:#ff0000;stroke-width:0.09999882;stroke-miterlimit:4;stroke-dasharray:none;stroke-opacity:1"
         id="path4609"
         inkscape:connector-curvature="0" />
      <path
         d="m -129.47964,121.31067 q -0.64423,0 -1.02491,0.48025 -0.37776,0.48024 -0.37776,1.30896 0,0.82579 0.37776,1.30604 0.38068,0.48024 1.02491,0.48024 0.64424,0 1.01906,-0.48024 0.37776,-0.48025 0.37776,-1.30604 0,-0.82872 -0.37776,-1.30896 -0.37482,-0.48025 -1.01906,-0.48025 z m 0,-0.48025 q 0.9195,0 1.47003,0.61788 0.55052,0.61495 0.55052,1.65158 0,1.0337 -0.55052,1.65158 -0.55053,0.61495 -1.47003,0.61495 -0.92242,0 -1.47588,-0.61495 -0.55052,-0.61495 -0.55052,-1.65158 0,-1.03663 0.55052,-1.65158 0.55346,-0.61788 1.47588,-0.61788 z"
         style="font-size:5.99722242px;fill:none;fill-opacity:1;stroke:#ff0000;stroke-width:0.09999882;stroke-miterlimit:4;stroke-dasharray:none;stroke-opacity:1"
         id="path4611"
         inkscape:connector-curvature="0" />
      <path
         d="m -126.53374,120.90949 h 0.88143 l 1.1157,2.97518 1.12155,-2.97518 h 0.88143 v 4.372 h -0.57689 v -3.83904 l -1.1274,2.99861 h -0.59445 l -1.12741,-2.99861 v 3.83904 h -0.57396 z"
         style="font-size:5.99722242px;fill:none;fill-opacity:1;stroke:#ff0000;stroke-width:0.09999882;stroke-miterlimit:4;stroke-dasharray:none;stroke-opacity:1"
         id="path4613"
         inkscape:connector-curvature="0" />
      <path
         d="m -120.76492,121.39559 v 1.6428 h 0.74379 q 0.4129,0 0.63838,-0.21377 0.22548,-0.21377 0.22548,-0.60909 0,-0.3924 -0.22548,-0.60617 -0.22548,-0.21377 -0.63838,-0.21377 z m -0.59153,-0.4861 h 1.33532 q 0.73501,0 1.10984,0.33383 0.37775,0.3309 0.37775,0.97221 0,0.64716 -0.37775,0.97806 -0.37483,0.3309 -1.10984,0.3309 h -0.74379 v 1.757 h -0.59153 z"
         style="font-size:5.99722242px;fill:none;fill-opacity:1;stroke:#ff0000;stroke-width:0.09999882;stroke-miterlimit:4;stroke-dasharray:none;stroke-opacity:1"
         id="path4615"
         inkscape:connector-curvature="0" />
      <path
         d="m -117.80438,120.90949 h 0.59445 v 2.656 q 0,0.7028 0.25477,1.0132 0.25476,0.30747 0.82579,0.30747 0.56809,0 0.82286,-0.30747 0.25476,-0.3104 0.25476,-1.0132 v -2.656 h 0.59445 v 2.7292 q 0,0.85508 -0.4246,1.2914 -0.42168,0.43632 -1.24747,0.43632 -0.82872,0 -1.25333,-0.43632 -0.42168,-0.43632 -0.42168,-1.2914 z"
         style="font-size:5.99722242px;fill:none;fill-opacity:1;stroke:#ff0000;stroke-width:0.09999882;stroke-miterlimit:4;stroke-dasharray:none;stroke-opacity:1"
         id="path4617"
         inkscape:connector-curvature="0" />
      <path
         d="m -113.95069,120.90949 h 3.69848 v 0.49782 h -1.55202 v 3.87418 h -0.59445 v -3.87418 h -1.55201 z"
         style="font-size:5.99722242px;fill:none;fill-opacity:1;stroke:#ff0000;stroke-width:0.09999882;stroke-miterlimit:4;stroke-dasharray:none;stroke-opacity:1"
         id="path4619"
         inkscape:connector-curvature="0" />
      <path
         d="m -109.67826,120.90949 h 2.76434 v 0.49782 h -2.17282 v 1.29432 h 2.08204 v 0.49781 h -2.08204 v 1.58423 h 2.22553 v 0.49782 h -2.81705 z"
         style="font-size:5.99722242px;fill:none;fill-opacity:1;stroke:#ff0000;stroke-width:0.09999882;stroke-miterlimit:4;stroke-dasharray:none;stroke-opacity:1"
         id="path4621"
         inkscape:connector-curvature="0" />
      <path
         d="m -103.80989,123.23166 q 0.19034,0.0644 0.36897,0.27526 0.18156,0.21084 0.36312,0.57981 l 0.6003,1.19476 h -0.63544 l -0.55932,-1.12155 q -0.21669,-0.43925 -0.42168,-0.58274 -0.20205,-0.14349 -0.55345,-0.14349 h -0.64423 v 1.84778 h -0.59153 v -4.372 h 1.33532 q 0.74966,0 1.11863,0.31333 0.36897,0.31333 0.36897,0.94585 0,0.4129 -0.19327,0.68523 -0.19035,0.27234 -0.55639,0.37776 z m -1.48173,-1.83607 v 1.55202 h 0.74379 q 0.42754,0 0.64424,-0.1962 0.21962,-0.19913 0.21962,-0.58274 0,-0.38361 -0.21962,-0.57688 -0.2167,-0.1962 -0.64424,-0.1962 z"
         style="font-size:5.99722242px;fill:none;fill-opacity:1;stroke:#ff0000;stroke-width:0.09999882;stroke-miterlimit:4;stroke-dasharray:none;stroke-opacity:1"
         id="path4623"
         inkscape:connector-curvature="0" />
    </g>
  </g>
</svg>
